<?xml version="1.0" encoding="UTF-8" standalone="no"?>
<!-- Created with Inkscape (http://www.inkscape.org/) -->

<svg
   width="7.6660519in"
   height="7.8305111in"
   viewBox="0 0 30.664207 31.322044"
   version="1.1"
   id="svg658"
   xml:space="preserve"
   inkscape:version="1.2.2 (b0a8486541, 2022-12-01)"
   sodipodi:docname="function-scope-environment.svg"
   inkscape:export-filename="k-triangle-colored.png"
   inkscape:export-xdpi="96"
   inkscape:export-ydpi="96"
   xmlns:inkscape="http://www.inkscape.org/namespaces/inkscape"
   xmlns:sodipodi="http://sodipodi.sourceforge.net/DTD/sodipodi-0.dtd"
   xmlns="http://www.w3.org/2000/svg"
   xmlns:svg="http://www.w3.org/2000/svg"><sodipodi:namedview
     id="namedview660"
     pagecolor="#ffffff"
     bordercolor="#000000"
     borderopacity="0.25"
     inkscape:showpageshadow="2"
     inkscape:pageopacity="0.0"
     inkscape:pagecheckerboard="0"
     inkscape:deskcolor="#d1d1d1"
     inkscape:document-units="in"
     showgrid="true"
     inkscape:zoom="0.914906"
     inkscape:cx="302.21684"
     inkscape:cy="236.08983"
     inkscape:window-width="3800"
     inkscape:window-height="2111"
     inkscape:window-x="3840"
     inkscape:window-y="0"
     inkscape:window-maximized="1"
     inkscape:current-layer="layer1"><inkscape:grid
       type="xygrid"
       id="grid779"
       units="in"
       spacingx="0.2"
       originx="-3.4992173"
       originy="-5.0927565"
       spacingy="0.2" /></sodipodi:namedview><defs
     id="defs655" /><g
     inkscape:label="Layer 1"
     inkscape:groupmode="layer"
     id="layer1"
     transform="translate(-3.4992174,-5.0927566)"><path
       style="fill:#000000;stroke-width:1"
       d="m 18.019125,14.317431 c -2.05701,-0.367266 -3.599664,-2.041476 -3.821957,-4.147889 -0.196501,-1.8620037 0.840308,-3.7368283 2.539341,-4.5917995 0.674155,-0.3392421 1.303761,-0.4849859 2.095116,-0.4849859 1.269351,0 2.321041,0.4246338 3.242376,1.3091513 1.004684,0.9645375 1.540681,2.4205812 1.391757,3.7807291 -0.205039,1.872659 -1.447715,3.412445 -3.217466,3.986728 -0.647564,0.210135 -1.546941,0.269873 -2.229167,0.148066 z"
       id="path627" /><path
       style="fill:#000000;stroke-width:1"
       d="m 28.560792,34.218753 c -2.899186,-0.627239 -4.488057,-3.701179 -3.317041,-6.417376 1.27413,-2.955371 5.138686,-3.73369 7.47382,-1.505223 1.664725,1.588681 1.923053,4.128316 0.612727,6.023768 -0.631118,0.912945 -1.565372,1.558177 -2.698753,1.863861 -0.476413,0.128494 -1.554336,0.146697 -2.070753,0.03497 z"
       id="path625" /><path
       style="fill:#ffbe6f;fill-opacity:1;stroke:#000000;stroke-width:0.202589;stroke-linecap:square"
       d="M 7.8515338,15.799413 18.799936,36.200587 29.748466,15.799289 18.8,15.775349 7.8515338,15.799409 Z"
       id="path1287"
       sodipodi:nodetypes="cccccc" /><path
       style="fill:#000000;stroke-width:1"
       d="m 7.2040497,34.215006 c -2.899186,-0.627239 -4.488057,-3.701179 -3.317041,-6.417376 1.27413,-2.955371 5.138686,-3.73369 7.4738203,-1.505223 1.664725,1.588681 1.923053,4.128316 0.612727,6.023768 -0.631118,0.912945 -1.565372,1.558177 -2.6987533,1.863861 -0.476413,0.128494 -1.554336,0.146697 -2.070753,0.03497 z"
       id="path1283" /><path
       style="fill:#1a5fb4;fill-opacity:1;stroke:#f6f5f4;stroke-width:0.202589;stroke-linecap:square"
       d="M 7.8515341,29.874644 18.799937,9.4734705 29.748467,29.874768 18.800001,29.898708 7.8515341,29.874648 Z"
       id="path629"
       sodipodi:nodetypes="cccccc" /></g></svg>
