<?xml version="1.0" encoding="UTF-8" standalone="no"?>
<!-- Created with Inkscape (http://www.inkscape.org/) -->

<svg
   width="4.9231477in"
   height="3.2655492in"
   viewBox="0 0 19.692591 13.062197"
   version="1.1"
   id="svg658"
   xml:space="preserve"
   inkscape:version="1.2.2 (b0a8486541, 2022-12-01)"
   sodipodi:docname="k-triangle-pieces.svg"
   inkscape:export-filename="k-triangle-pieces.png"
   inkscape:export-xdpi="96"
   inkscape:export-ydpi="96"
   xmlns:inkscape="http://www.inkscape.org/namespaces/inkscape"
   xmlns:sodipodi="http://sodipodi.sourceforge.net/DTD/sodipodi-0.dtd"
   xmlns="http://www.w3.org/2000/svg"
   xmlns:svg="http://www.w3.org/2000/svg"><sodipodi:namedview
     id="namedview660"
     pagecolor="#ffffff"
     bordercolor="#000000"
     borderopacity="0.25"
     inkscape:showpageshadow="2"
     inkscape:pageopacity="0.0"
     inkscape:pagecheckerboard="0"
     inkscape:deskcolor="#d1d1d1"
     inkscape:document-units="in"
     showgrid="true"
     inkscape:zoom="1.829812"
     inkscape:cx="328.72229"
     inkscape:cy="360.69279"
     inkscape:window-width="3800"
     inkscape:window-height="2111"
     inkscape:window-x="3840"
     inkscape:window-y="0"
     inkscape:window-maximized="1"
     inkscape:current-layer="layer1"><inkscape:grid
       type="xygrid"
       id="grid779"
       units="in"
       spacingx="0.2"
       originx="-1.52596"
       originy="-1.9336374"
       spacingy="0.2" /></sodipodi:namedview><defs
     id="defs655" /><g
     inkscape:label="Layer 1"
     inkscape:groupmode="layer"
     id="layer1"
     transform="translate(-1.52596,-1.9336375)"><g
       id="g390"
       transform="translate(1.6,-15.8)"><g
         id="g375"><path
           style="fill:#000000;stroke-width:1"
           d="m 15.9497,24.226374 c -1.29702,-0.176731 -2.41197,-1.1549 -2.732085,-2.396915 -0.0351,-0.136174 -0.07663,-0.374152 -0.0923,-0.528839 l -0.02849,-0.28125 h 1.651588 C 15.656786,21.019371 16.4,21.01067 16.4,21 c 0,-0.01492 -1.44816,-2.731433 -1.527029,-2.864453 -0.02783,-0.04694 0.282216,-0.189038 0.616518,-0.282564 1.305991,-0.365368 2.736047,0.135556 3.518885,1.232604 0.993054,1.39164 0.749483,3.336872 -0.552272,4.41062 -0.674155,0.556075 -1.6652,0.844785 -2.5064,0.730164 z"
           id="path306" /><path
           style="fill:#000000;stroke-width:1"
           d="M 2.77591,24.224236 C 2.375498,24.170196 1.8767,24.001236 1.548413,23.808453 -0.351629,22.692671 -0.63631,20.087511 0.97844,18.592537 c 0.81689,-0.756296 2.006316,-1.042154 3.082981,-0.740943 0.334261,0.09351 0.64433,0.235617 0.616557,0.282564 -0.085183,0.143991 -1.527068,2.847452 -1.527068,2.863175 0,0.01135 0.743214,0.02065 1.651587,0.02065 h 1.651588 l -0.02849,0.28125 c -0.18461,1.822486 -1.861445,3.16637 -3.649685,2.925008 z"
           id="path304" /><path
           style="fill:#000000;stroke-width:1"
           d="m 8.6702325,21.294724 c -0.592094,-1.105729 -1.149768,-2.146354 -1.239276,-2.3125 -0.08951,-0.166146 -0.147049,-0.301783 -0.127872,-0.301416 0.01918,3.75e-4 0.576035,1.012868 1.237457,2.25 0.661424,1.237133 1.2171355,2.249333 1.2349135,2.249333 0.01778,0 0.573489,-1.0122 1.234912,-2.249333 0.661423,-1.237132 1.218279,-2.249632 1.237458,-2.25 0.01918,-3.75e-4 -0.03836,0.13527 -0.127872,0.301416 -0.08951,0.166146 -0.647182,1.206771 -1.239276,2.3125 -0.592094,1.105729 -1.089444,2.010417 -1.105222,2.010417 -0.01578,0 -0.5131285,-0.904688 -1.1052225,-2.010417 z"
           id="path300" /></g><g
         id="g380"
         transform="translate(0.48949016,13.521727)"><path
           style="fill:#000000;stroke-width:1"
           d="m 7.4902088,17.156597 c -0.683794,-0.433775 -1.225393,-1.2379 -1.399095,-2.077273 -0.09121,-0.440743 -0.05977,-1.169892 0.06795,-1.576051 0.176218,-0.560371 0.398417,-0.92275 0.831606,-1.356244 0.324873,-0.325104 0.466244,-0.432866 0.772629,-0.588949 0.599212,-0.30526 0.774967,-0.345147 1.520833,-0.345147 0.7458652,0 0.9216202,0.03989 1.5208322,0.345147 0.511725,0.26069 1.089276,0.829117 1.341387,1.320193 0.260979,0.508351 0.351203,0.842917 0.376421,1.395833 0.04528,0.992918 -0.307278,1.88325 -0.99962,2.524357 -0.23473,0.217359 -0.59081,0.475644 -0.655737,0.475644 -0.01397,0 -0.371237,-0.646674 -0.793926,-1.437054 C 9.6508018,15.046674 9.2955898,14.4 9.2841318,14.4 c -0.01146,0 -0.36667,0.646674 -0.789358,1.437053 -0.422689,0.79038 -0.779955,1.437054 -0.793926,1.437054 -0.01397,0 -0.108759,-0.05288 -0.210642,-0.11751 z"
           id="path312" /><path
           style="fill:#000000;stroke-width:1"
           d="m 15.643608,12.054016 c -1.254273,-0.0037 -2.434903,-0.0075 -2.623622,-0.0086 -0.188721,-9.94e-4 -0.335493,0.01184 -0.326167,0.0286 0.0093,0.01678 1.164743,0.03307 2.567582,0.03632 1.402844,0.0032 2.557453,0.01867 2.565801,0.03437 0.0083,0.01571 -0.624445,0.981583 -1.406286,2.146361 -0.781806,1.164798 -1.414355,2.131817 -1.405681,2.148921 0.0087,0.01709 0.101425,-0.09737 0.206105,-0.254409 0.104713,-0.157009 0.761681,-1.137973 1.460014,-2.179866 0.698334,-1.041895 1.263629,-1.905758 1.256225,-1.919687 -0.0075,-0.01395 -1.039693,-0.0283 -2.293964,-0.03204 z"
           id="path314" /><path
           style="fill:#000000;stroke-width:1"
           d="m 1.8673783,13.991213 c 0.6892107,1.047952 1.3376307,2.034588 1.4409331,2.192527 0.1033016,0.157941 0.1950466,0.273228 0.2038746,0.2562 0.0088,-0.01704 -0.6152658,-0.989528 -1.3868754,-2.161106 -0.7716093,-1.17158 -1.39598556,-2.142927 -1.38750266,-2.158552 0.00848,-0.01562 1.16318386,-0.02101 2.56600136,-0.01198 1.4028167,0.009 2.5583267,0.0028 2.5678017,-0.01391 0.0095,-0.01667 -0.137181,-0.03082 -0.325905,-0.03145 -0.188721,-6.53e-4 -1.369339,-0.0071 -2.623596,-0.0143 -1.2542565,-0.0072 -2.28662646,-0.0019 -2.29415486,0.01202 -0.00752,0.01387 0.55021186,0.882624 1.23942246,1.930574 z"
           id="path316" /></g></g></g></svg>
