<?xml version="1.0" encoding="UTF-8" standalone="no"?>
<svg
   width="166"
   height="32"
   viewBox="0 0 166 32"
   fill="none"
   version="1.1"
   id="svg6"
   sodipodi:docname="github-classroom.svg"
   inkscape:version="1.2.2 (b0a8486541, 2022-12-01)"
   xmlns:inkscape="http://www.inkscape.org/namespaces/inkscape"
   xmlns:sodipodi="http://sodipodi.sourceforge.net/DTD/sodipodi-0.dtd"
   xmlns="http://www.w3.org/2000/svg"
   xmlns:svg="http://www.w3.org/2000/svg">
  <defs
     id="defs10" />
  <sodipodi:namedview
     id="namedview8"
     pagecolor="#ffffff"
     bordercolor="#000000"
     borderopacity="0.25"
     inkscape:showpageshadow="2"
     inkscape:pageopacity="0.0"
     inkscape:pagecheckerboard="0"
     inkscape:deskcolor="#d1d1d1"
     showgrid="false"
     inkscape:zoom="7.375"
     inkscape:cx="48.881356"
     inkscape:cy="16"
     inkscape:window-width="3800"
     inkscape:window-height="2111"
     inkscape:window-x="3840"
     inkscape:window-y="0"
     inkscape:window-maximized="1"
     inkscape:current-layer="svg6" />
  <path
     fill-rule="evenodd"
     clip-rule="evenodd"
     d="M16 0C7.16 0 0 7.16 0 16C0 23.08 4.58 29.06 10.94 31.18C11.74 31.32 12.04 30.84 12.04 30.42C12.04 30.04 12.02 28.78 12.02 27.44C8 28.18 6.96 26.46 6.64 25.56C6.46 25.1 5.68 23.68 5 23.3C4.44 23 3.64 22.26 4.98 22.24C6.24 22.22 7.14 23.4 7.44 23.88C8.88 26.3 11.18 25.62 12.1 25.2C12.24 24.16 12.66 23.46 13.12 23.06C9.56 22.66 5.84 21.28 5.84 15.16C5.84 13.42 6.46 11.98 7.48 10.86C7.32 10.46 6.76 8.82 7.64 6.62C7.64 6.62 8.98 6.2 12.04 8.26C13.32 7.9 14.68 7.72 16.04 7.72C17.4 7.72 18.76 7.9 20.04 8.26C23.1 6.18 24.44 6.62 24.44 6.62C25.32 8.82 24.76 10.46 24.6 10.86C25.62 11.98 26.24 13.4 26.24 15.16C26.24 21.3 22.5 22.66 18.94 23.06C19.52 23.56 20.02 24.52 20.02 26.02C20.02 28.16 20 29.88 20 30.42C20 30.84 20.3 31.34 21.1 31.18C27.42 29.06 32 23.06 32 16C32 7.16 24.84 0 16 0Z"
     fill="white"
     id="path2"
     style="fill:#000000" />
  <path
     d="M55.5045 14.0004H52.7346C52.5097 12.8226 51.9563 11.92 51.0744 11.2926C50.1985 10.6593 49.1805 10.3427 48.0205 10.3427C46.9788 10.3427 46.0437 10.6061 45.2151 11.1328C44.3865 11.6596 43.7325 12.4319 43.2531 13.4499C42.7796 14.462 42.5428 15.7049 42.5428 17.1786C42.5428 18.6583 42.7825 19.9071 43.2619 20.9251C43.7413 21.9431 44.3924 22.7125 45.2151 23.2333C46.0437 23.7541 46.9758 24.0146 48.0116 24.0146C49.1598 24.0146 50.1748 23.7038 51.0567 23.0824C51.9386 22.4609 52.4979 21.5702 52.7346 20.4102L55.5045 20.419C55.3092 21.6146 54.8712 22.671 54.1906 23.5884C53.5099 24.5058 52.6399 25.2249 51.5805 25.7457C50.5211 26.2607 49.3255 26.5181 47.9938 26.5181C46.4195 26.5181 45.0168 26.1452 43.7857 25.3995C42.5547 24.6478 41.584 23.5736 40.8738 22.1768C40.1695 20.7801 39.8173 19.114 39.8173 17.1786C39.8173 15.2373 40.1725 13.5713 40.8827 12.1804C41.5929 10.7836 42.5636 9.71236 43.7946 8.96662C45.0257 8.21496 46.4254 7.83913 47.9938 7.83913C49.2782 7.83913 50.4471 8.08179 51.5006 8.56712C52.56 9.05244 53.4389 9.75675 54.1373 10.68C54.8416 11.5974 55.2973 12.7042 55.5045 14.0004ZM60.9785 8.08771V26.2695H58.324V8.08771H60.9785ZM68.268 26.5714C67.4039 26.5714 66.6226 26.4116 65.9242 26.092C65.2318 25.7724 64.6813 25.3048 64.2729 24.6893C63.8646 24.0678 63.6604 23.3103 63.6604 22.4165C63.6604 21.6412 63.8083 21.005 64.1043 20.5078C64.4061 20.0107 64.8056 19.6171 65.3028 19.3271C65.8059 19.0371 66.3681 18.821 66.9896 18.679C67.611 18.531 68.2443 18.4186 68.8894 18.3416C69.7062 18.2469 70.3661 18.17 70.8692 18.1108C71.3782 18.0457 71.7481 17.9421 71.9789 17.8001C72.2157 17.658 72.334 17.4272 72.334 17.1076V17.0455C72.334 16.2701 72.115 15.6694 71.6771 15.2433C71.245 14.8171 70.5999 14.604 69.7417 14.604C68.848 14.604 68.1437 14.7994 67.6288 15.19C67.1198 15.5806 66.7676 16.0186 66.5723 16.5039L64.0776 15.9357C64.5215 14.6928 65.2613 13.8021 66.2971 13.2635C67.3388 12.7249 68.4751 12.4556 69.7062 12.4556C70.2507 12.4556 70.8278 12.5207 71.4374 12.6509C72.047 12.7752 72.6211 13.009 73.1597 13.3523C73.7042 13.6896 74.1451 14.169 74.4825 14.7905C74.8257 15.4119 74.9974 16.2198 74.9974 17.2141V26.2695H72.4051V24.4052H72.2985C72.044 24.9142 71.5912 25.4025 70.9402 25.87C70.2892 26.3376 69.3984 26.5714 68.268 26.5714ZM68.845 24.4407C69.5849 24.4407 70.2152 24.2957 70.736 24.0057C71.2569 23.7157 71.6534 23.3369 71.9256 22.8693C72.2038 22.3958 72.3429 21.8898 72.3429 21.3512V19.5934C72.2186 19.7177 71.9464 19.8272 71.5261 19.9219C71.1059 20.0166 70.662 20.0965 70.1945 20.1616C69.7269 20.2267 69.3481 20.2799 69.0581 20.3214C68.2887 20.422 67.6288 20.6262 67.0783 20.9339C66.5338 21.2358 66.2616 21.7418 66.2616 22.4521C66.2616 23.109 66.5042 23.6062 66.9896 23.9435C67.4749 24.275 68.0934 24.4407 68.845 24.4407ZM88.5014 15.9624L86.0955 16.3885C85.9416 15.9328 85.6545 15.5155 85.2343 15.1367C84.82 14.752 84.1986 14.5597 83.37 14.5597C82.6183 14.5597 81.988 14.7283 81.479 15.0657C80.9759 15.3971 80.7273 15.8262 80.7333 16.353C80.7273 16.8146 80.8931 17.1845 81.2304 17.4627C81.5737 17.735 82.1212 17.9599 82.8728 18.1374L85.039 18.6346C87.5248 19.2087 88.7677 20.4397 88.7677 22.3278C88.7677 23.1504 88.531 23.8784 88.0575 24.5117C87.5899 25.145 86.9359 25.6422 86.0955 26.0032C85.261 26.3642 84.2933 26.5447 83.1924 26.5447C81.6595 26.5447 80.4137 26.2192 79.4549 25.5682C78.496 24.9112 77.9042 23.979 77.6793 22.7717L80.245 22.381C80.5646 23.7305 81.5411 24.4052 83.1747 24.4052C84.0447 24.4052 84.7401 24.2247 85.261 23.8636C85.7818 23.4967 86.0422 23.0498 86.0422 22.5231C86.0422 21.6531 85.4001 21.076 84.1157 20.7919L81.8075 20.2859C80.5291 20.0018 79.588 19.5401 78.9843 18.9009C78.3806 18.2617 78.0788 17.4598 78.0788 16.495C78.0788 15.6901 78.3037 14.9858 78.7535 14.3821C79.2033 13.7725 79.8248 13.299 80.6179 12.9616C81.4109 12.6243 82.3194 12.4556 83.3434 12.4556C84.8171 12.4556 85.9771 12.7752 86.8235 13.4144C87.6698 14.0536 88.2291 14.9029 88.5014 15.9624ZM101.655 15.9624L99.2488 16.3885C99.0949 15.9328 98.8079 15.5155 98.3877 15.1367C97.9734 14.752 97.3519 14.5597 96.5233 14.5597C95.7716 14.5597 95.1413 14.7283 94.6323 15.0657C94.1292 15.3971 93.8807 15.8262 93.8866 16.353C93.8807 16.8146 94.0464 17.1845 94.3837 17.4627C94.727 17.735 95.2745 17.9599 96.0261 18.1374L98.1923 18.6346C100.678 19.2087 101.921 20.4397 101.921 22.3278C101.921 23.1504 101.684 23.8784 101.211 24.5117C100.743 25.145 100.089 25.6422 99.2488 26.0032C98.4143 26.3642 97.4466 26.5447 96.3457 26.5447C94.8128 26.5447 93.567 26.2192 92.6082 25.5682C91.6494 24.9112 91.0575 23.979 90.8326 22.7717L93.3983 22.381C93.7179 23.7305 94.6945 24.4052 96.328 24.4052C97.198 24.4052 97.8935 24.2247 98.4143 23.8636C98.9351 23.4967 99.1955 23.0498 99.1955 22.5231C99.1955 21.6531 98.5534 21.076 97.269 20.7919L94.9608 20.2859C93.6824 20.0018 92.7413 19.5401 92.1377 18.9009C91.534 18.2617 91.2321 17.4598 91.2321 16.495C91.2321 15.6901 91.457 14.9858 91.9068 14.3821C92.3566 13.7725 92.9781 13.299 93.7712 12.9616C94.5643 12.6243 95.4728 12.4556 96.4967 12.4556C97.9704 12.4556 99.1304 12.7752 99.9768 13.4144C100.823 14.0536 101.382 14.9029 101.655 15.9624ZM104.59 26.2695V12.6332H107.155V14.7994H107.297C107.546 14.0655 107.984 13.4884 108.611 13.0682C109.239 12.642 109.955 12.429 110.76 12.429C111.133 12.429 111.467 12.4734 111.763 12.5621C112.059 12.6509 112.319 12.7723 112.544 12.9261L111.692 15.1456C111.532 15.0627 111.352 14.9976 111.15 14.9503C110.949 14.9029 110.718 14.8793 110.458 14.8793C109.54 14.8793 108.774 15.1693 108.159 15.7493C107.549 16.3234 107.244 17.0543 107.244 17.9421V26.2695H104.59ZM119.556 26.5447C118.278 26.5447 117.162 26.2518 116.209 25.6658C115.256 25.0799 114.517 24.2602 113.99 23.2067C113.463 22.1473 113.2 20.9162 113.2 19.5135C113.2 18.099 113.463 16.862 113.99 15.8026C114.517 14.7431 115.256 13.9205 116.209 13.3345C117.162 12.7486 118.278 12.4556 119.556 12.4556C120.841 12.4556 121.956 12.7486 122.903 13.3345C123.856 13.9205 124.596 14.7431 125.123 15.8026C125.649 16.862 125.913 18.099 125.913 19.5135C125.913 20.9162 125.649 22.1473 125.123 23.2067C124.596 24.2602 123.856 25.0799 122.903 25.6658C121.956 26.2518 120.841 26.5447 119.556 26.5447ZM119.565 24.3164C120.4 24.3164 121.086 24.0974 121.625 23.6594C122.169 23.2215 122.572 22.6385 122.832 21.9105C123.099 21.1766 123.232 20.3746 123.232 19.5046C123.232 18.6346 123.099 17.8326 122.832 17.0987C122.572 16.3648 122.169 15.7789 121.625 15.3409C121.086 14.897 120.4 14.6751 119.565 14.6751C118.731 14.6751 118.041 14.897 117.497 15.3409C116.952 15.7789 116.547 16.3648 116.28 17.0987C116.014 17.8326 115.881 18.6346 115.881 19.5046C115.881 20.3746 116.014 21.1766 116.28 21.9105C116.547 22.6385 116.952 23.2215 117.497 23.6594C118.041 24.0974 118.731 24.3164 119.565 24.3164ZM134.37 26.5447C133.091 26.5447 131.976 26.2518 131.023 25.6658C130.07 25.0799 129.33 24.2602 128.803 23.2067C128.277 22.1473 128.013 20.9162 128.013 19.5135C128.013 18.099 128.277 16.862 128.803 15.8026C129.33 14.7431 130.07 13.9205 131.023 13.3345C131.976 12.7486 133.091 12.4556 134.37 12.4556C135.654 12.4556 136.77 12.7486 137.717 13.3345C138.67 13.9205 139.409 14.7431 139.936 15.8026C140.463 16.862 140.726 18.099 140.726 19.5135C140.726 20.9162 140.463 22.1473 139.936 23.2067C139.409 24.2602 138.67 25.0799 137.717 25.6658C136.77 26.2518 135.654 26.5447 134.37 26.5447ZM134.379 24.3164C135.213 24.3164 135.9 24.0974 136.438 23.6594C136.983 23.2215 137.385 22.6385 137.646 21.9105C137.912 21.1766 138.045 20.3746 138.045 19.5046C138.045 18.6346 137.912 17.8326 137.646 17.0987C137.385 16.3648 136.983 15.7789 136.438 15.3409C135.9 14.897 135.213 14.6751 134.379 14.6751C133.544 14.6751 132.855 14.897 132.31 15.3409C131.766 15.7789 131.36 16.3648 131.094 17.0987C130.827 17.8326 130.694 18.6346 130.694 19.5046C130.694 20.3746 130.827 21.1766 131.094 21.9105C131.36 22.6385 131.766 23.2215 132.31 23.6594C132.855 24.0974 133.544 24.3164 134.379 24.3164ZM143.439 26.2695V12.6332H145.987V14.8526H146.156C146.44 14.101 146.905 13.515 147.55 13.0948C148.195 12.6687 148.967 12.4556 149.867 12.4556C150.778 12.4556 151.542 12.6687 152.157 13.0948C152.779 13.521 153.237 14.1069 153.533 14.8526H153.675C154.007 14.1246 154.525 13.5446 155.229 13.1126C155.939 12.6746 156.786 12.4556 157.768 12.4556C159.005 12.4556 160.014 12.8462 160.795 13.6275C161.583 14.4028 161.976 15.5688 161.976 17.1254V26.2695H159.322V17.3739C159.322 16.4506 159.07 15.7818 158.567 15.3675C158.07 14.9532 157.469 14.7461 156.765 14.7461C155.901 14.7461 155.229 15.0124 154.75 15.5451C154.27 16.0778 154.03 16.7554 154.03 17.5781V26.2695H151.385V17.2053C151.385 16.4654 151.154 15.8706 150.692 15.4208C150.231 14.971 149.63 14.7461 148.89 14.7461C148.139 14.7461 147.485 15.0361 146.928 15.6161C146.372 16.1961 146.094 16.9448 146.094 17.8622V26.2695H143.439Z"
     fill="white"
     id="path4"
     style="fill:#000000" />
</svg>
